<svg width="18" height="21" viewBox="0 0 18 21" fill="none" xmlns="http://www.w3.org/2000/svg">
<path fill-rule="evenodd" clip-rule="evenodd" d="M10.384 2.17241H7.61459C7.43096 2.17241 7.25486 2.24871 7.12501 2.38451C6.99517 2.52031 6.92223 2.7045 6.92223 2.89655V3.62069H11.0764V2.89655C11.0764 2.7045 11.0034 2.52031 10.8736 2.38451C10.7438 2.24871 10.5677 2.17241 10.384 2.17241ZM13.1535 3.62069V2.89655C13.1535 2.12834 12.8617 1.39159 12.3423 0.84838C11.823 0.305172 11.1185 0 10.384 0H7.61459C6.88008 0 6.17567 0.305172 5.65629 0.84838C5.13692 1.39159 4.84514 2.12834 4.84514 2.89655V3.62069H1.03854C0.763103 3.62069 0.498946 3.73513 0.304182 3.93883C0.109417 4.14254 0 4.41882 0 4.7069C0 4.99498 0.109417 5.27126 0.304182 5.47496C0.498946 5.67866 0.763103 5.7931 1.03854 5.7931H1.47057L1.90953 16.8362C1.9542 17.9564 2.41113 19.0151 3.1848 19.7911C3.95848 20.5671 4.989 21.0002 6.06093 21H11.9391C13.0108 20.9999 14.0409 20.5665 14.8143 19.7906C15.5877 19.0146 16.0444 17.9561 16.0891 16.8362L16.5294 5.7931H16.9615C17.2369 5.7931 17.5011 5.67866 17.6958 5.47496C17.8906 5.27126 18 4.99498 18 4.7069C18 4.41882 17.8906 4.14254 17.6958 3.93883C17.5011 3.73513 17.2369 3.62069 16.9615 3.62069H13.1535ZM14.4496 5.7931H3.54904L3.98523 16.745C4.00739 17.3052 4.23578 17.8347 4.62263 18.2229C5.00949 18.611 5.52485 18.8277 6.06093 18.8276H11.9391C12.4749 18.8273 12.9899 18.6105 13.3765 18.2224C13.763 17.8343 13.9912 17.3049 14.0134 16.745L14.4496 5.7931ZM5.88368 8.68965V15.931C5.88368 16.2191 5.9931 16.4954 6.18787 16.6991C6.38263 16.9028 6.64679 17.0172 6.92223 17.0172C7.19766 17.0172 7.46182 16.9028 7.65659 16.6991C7.85135 16.4954 7.96077 16.2191 7.96077 15.931V8.68965C7.96077 8.40157 7.85135 8.12529 7.65659 7.92159C7.46182 7.71789 7.19766 7.60345 6.92223 7.60345C6.64679 7.60345 6.38263 7.71789 6.18787 7.92159C5.9931 8.12529 5.88368 8.40157 5.88368 8.68965ZM11.0764 7.60345C11.3518 7.60345 11.616 7.71789 11.8107 7.92159C12.0055 8.12529 12.1149 8.40157 12.1149 8.68965V15.931C12.1149 16.2191 12.0055 16.4954 11.8107 16.6991C11.616 16.9028 11.3518 17.0172 11.0764 17.0172C10.801 17.0172 10.5368 16.9028 10.342 16.6991C10.1473 16.4954 10.0378 16.2191 10.0378 15.931V8.68965C10.0378 8.40157 10.1473 8.12529 10.342 7.92159C10.5368 7.71789 10.801 7.60345 11.0764 7.60345Z" fill="#FBD0CA"/>
</svg>
