<svg width="22" height="19" viewBox="0 0 22 19" fill="none" xmlns="http://www.w3.org/2000/svg">
<mask id="path-1-outside-1_6_19" maskUnits="userSpaceOnUse" x="-0.434006" y="-0.75" width="22" height="15" fill="black">
<rect fill="white" x="-0.434006" y="-0.75" width="22" height="15"/>
<path fill-rule="evenodd" clip-rule="evenodd" d="M0.565994 1C0.565994 0.801088 0.645012 0.610322 0.785664 0.46967C0.926316 0.329018 1.11708 0.25 1.31599 0.25H2.49699C3.03949 0.25003 3.5637 0.44606 3.9731 0.80199C4.38251 1.15792 4.64953 1.64978 4.72499 2.187L4.78599 2.622H18.751C19.1244 2.62201 19.4919 2.71495 19.8205 2.89244C20.149 3.06994 20.4282 3.32641 20.6329 3.63872C20.8375 3.95104 20.9613 4.30939 20.9929 4.68146C21.0245 5.05353 20.963 5.42762 20.814 5.77L18.146 11.898C17.9711 12.2998 17.6827 12.6417 17.3163 12.8819C16.9498 13.1221 16.5212 13.25 16.083 13.25H6.72199C6.1795 13.25 5.65529 13.0539 5.24588 12.698C4.83648 12.3421 4.56946 11.8502 4.49399 11.313L3.23999 2.396C3.2149 2.21681 3.12588 2.05273 2.98934 1.93401C2.85279 1.81529 2.67793 1.74994 2.49699 1.75H1.31699C1.11808 1.75 0.927317 1.67098 0.786664 1.53033C0.646012 1.38968 0.566994 1.19891 0.566994 1M4.99799 4.122L5.97999 11.104C6.00508 11.2832 6.09411 11.4473 6.23065 11.566C6.3672 11.6847 6.54206 11.7501 6.72299 11.75H16.084C16.23 11.7501 16.3729 11.7076 16.4951 11.6277C16.6174 11.5477 16.7136 11.4338 16.772 11.3L19.439 5.17C19.4884 5.05599 19.5086 4.9315 19.498 4.80771C19.4873 4.68393 19.4461 4.56473 19.378 4.46082C19.3099 4.35691 19.217 4.27156 19.1077 4.21242C18.9985 4.15328 18.8762 4.12221 18.752 4.122H4.99799Z"/>
</mask>
<path fill-rule="evenodd" clip-rule="evenodd" d="M0.565994 1C0.565994 0.801088 0.645012 0.610322 0.785664 0.46967C0.926316 0.329018 1.11708 0.25 1.31599 0.25H2.49699C3.03949 0.25003 3.5637 0.44606 3.9731 0.80199C4.38251 1.15792 4.64953 1.64978 4.72499 2.187L4.78599 2.622H18.751C19.1244 2.62201 19.4919 2.71495 19.8205 2.89244C20.149 3.06994 20.4282 3.32641 20.6329 3.63872C20.8375 3.95104 20.9613 4.30939 20.9929 4.68146C21.0245 5.05353 20.963 5.42762 20.814 5.77L18.146 11.898C17.9711 12.2998 17.6827 12.6417 17.3163 12.8819C16.9498 13.1221 16.5212 13.25 16.083 13.25H6.72199C6.1795 13.25 5.65529 13.0539 5.24588 12.698C4.83648 12.3421 4.56946 11.8502 4.49399 11.313L3.23999 2.396C3.2149 2.21681 3.12588 2.05273 2.98934 1.93401C2.85279 1.81529 2.67793 1.74994 2.49699 1.75H1.31699C1.11808 1.75 0.927317 1.67098 0.786664 1.53033C0.646012 1.38968 0.566994 1.19891 0.566994 1M4.99799 4.122L5.97999 11.104C6.00508 11.2832 6.09411 11.4473 6.23065 11.566C6.3672 11.6847 6.54206 11.7501 6.72299 11.75H16.084C16.23 11.7501 16.3729 11.7076 16.4951 11.6277C16.6174 11.5477 16.7136 11.4338 16.772 11.3L19.439 5.17C19.4884 5.05599 19.5086 4.9315 19.498 4.80771C19.4873 4.68393 19.4461 4.56473 19.378 4.46082C19.3099 4.35691 19.217 4.27156 19.1077 4.21242C18.9985 4.15328 18.8762 4.12221 18.752 4.122H4.99799Z" fill="#44524B"/>
<path d="M1.31599 0.25L1.31599 0L1.31599 0.25ZM2.49699 0.25L2.49701 0H2.49699V0.25ZM4.72499 2.187L4.97257 2.15228L4.97256 2.15222L4.72499 2.187ZM4.78599 2.622L4.53842 2.65672L4.56861 2.872H4.78599V2.622ZM18.751 2.622L18.751 2.372H18.751V2.622ZM20.814 5.77L21.0432 5.8698L21.0432 5.86978L20.814 5.77ZM18.146 11.898L17.9168 11.7982L17.9168 11.7982L18.146 11.898ZM16.083 13.25L16.083 13.5L16.083 13.5L16.083 13.25ZM6.72199 13.25L6.72198 13.5H6.72199V13.25ZM4.49399 11.313L4.74156 11.2782L4.74156 11.2782L4.49399 11.313ZM3.23999 2.396L2.99241 2.43067L2.99243 2.43081L3.23999 2.396ZM2.49699 1.75L2.49699 2L2.49708 2L2.49699 1.75ZM1.31699 1.75V2V1.75ZM4.99799 4.122V3.872H4.71037L4.75043 4.15682L4.99799 4.122ZM5.97999 11.104L6.22758 11.0693L6.22756 11.0692L5.97999 11.104ZM6.72299 11.75L6.72299 11.5L6.72291 11.5L6.72299 11.75ZM16.084 11.75L16.0842 11.5H16.084V11.75ZM16.772 11.3L17.0011 11.4L17.0012 11.3997L16.772 11.3ZM19.439 5.17L19.6682 5.26974L19.6684 5.26933L19.439 5.17ZM18.752 4.122L18.7524 3.872H18.752V4.122ZM0.815994 1C0.815994 0.867392 0.868673 0.740215 0.962441 0.646447L0.608888 0.292893C0.421351 0.48043 0.315994 0.734784 0.315994 1H0.815994ZM0.962441 0.646447C1.05621 0.552678 1.18339 0.5 1.31599 0.5L1.31599 0C1.05078 0 0.796424 0.105357 0.608888 0.292893L0.962441 0.646447ZM1.31599 0.5H2.49699V0H1.31599V0.5ZM2.49698 0.5C2.9792 0.500026 3.44516 0.674275 3.80908 0.990658L4.13713 0.613322C3.68224 0.217844 3.09978 3.28855e-05 2.49701 3.72056e-10L2.49698 0.5ZM3.80908 0.990658C4.17299 1.30704 4.41034 1.74425 4.47742 2.22178L4.97256 2.15222C4.88871 1.55531 4.59202 1.0088 4.13713 0.613322L3.80908 0.990658ZM4.47742 2.22172L4.53842 2.65672L5.03357 2.58728L4.97257 2.15228L4.47742 2.22172ZM4.78599 2.872H18.751V2.372H4.78599V2.872ZM18.751 2.872C19.0829 2.872 19.4096 2.95462 19.7016 3.11239L19.9393 2.67249C19.5743 2.47527 19.1659 2.37201 18.751 2.372L18.751 2.872ZM19.7016 3.11239C19.9937 3.27016 20.2418 3.49814 20.4238 3.77576L20.842 3.50169C20.6145 3.15467 20.3043 2.86971 19.9393 2.67249L19.7016 3.11239ZM20.4238 3.77576C20.6057 4.05337 20.7157 4.3719 20.7438 4.70263L21.242 4.66029C21.2068 4.24688 21.0694 3.84872 20.842 3.50169L20.4238 3.77576ZM20.7438 4.70263C20.7719 5.03336 20.7172 5.36588 20.5848 5.67022L21.0432 5.86978C21.2088 5.48936 21.2771 5.0737 21.242 4.66029L20.7438 4.70263ZM20.5848 5.6702L17.9168 11.7982L18.3752 11.9978L21.0432 5.8698L20.5848 5.6702ZM17.9168 11.7982C17.7613 12.1553 17.505 12.4593 17.1792 12.6728L17.4533 13.091C17.8605 12.8241 18.1809 12.4442 18.3752 11.9978L17.9168 11.7982ZM17.1792 12.6728C16.8535 12.8863 16.4725 13 16.083 13L16.083 13.5C16.5698 13.5 17.0461 13.3578 17.4533 13.091L17.1792 12.6728ZM16.083 13H6.72199V13.5H16.083V13ZM6.72201 13C6.23979 13 5.77382 12.8257 5.40991 12.5093L5.08186 12.8867C5.53675 13.2822 6.11921 13.5 6.72198 13.5L6.72201 13ZM5.40991 12.5093C5.046 12.193 4.80864 11.7557 4.74156 11.2782L4.24643 11.3478C4.33028 11.9447 4.62697 12.4912 5.08186 12.8867L5.40991 12.5093ZM4.74156 11.2782L3.48756 2.36118L2.99243 2.43081L4.24643 11.3478L4.74156 11.2782ZM3.48758 2.36133C3.45413 2.12241 3.33543 1.90364 3.15337 1.74535L2.8253 2.12268C2.91633 2.20182 2.97568 2.31121 2.99241 2.43067L3.48758 2.36133ZM3.15337 1.74535C2.97131 1.58706 2.73816 1.49992 2.49691 1.5L2.49708 2C2.6177 1.99996 2.73427 2.04353 2.8253 2.12268L3.15337 1.74535ZM2.49699 1.5H1.31699V2H2.49699V1.5ZM1.31699 1.5C1.18439 1.5 1.05721 1.44732 0.963441 1.35355L0.609888 1.70711C0.797424 1.89464 1.05178 2 1.31699 2L1.31699 1.5ZM0.963441 1.35355C0.869673 1.25979 0.816994 1.13261 0.816994 1H0.316994C0.316994 1.26522 0.422351 1.51957 0.609888 1.70711L0.963441 1.35355ZM4.75043 4.15682L5.73243 11.1388L6.22756 11.0692L5.24556 4.08718L4.75043 4.15682ZM5.73241 11.1387C5.76586 11.3776 5.88456 11.5964 6.06662 11.7546L6.39468 11.3773C6.30365 11.2982 6.24431 11.1888 6.22758 11.0693L5.73241 11.1387ZM6.06662 11.7546C6.24868 11.9129 6.48183 12.0001 6.72308 12L6.72291 11.5C6.60229 11.5 6.48571 11.4565 6.39468 11.3773L6.06662 11.7546ZM6.72299 12H16.084V11.5H6.72299V12ZM16.0838 12C16.2785 12.0002 16.469 11.9435 16.632 11.8369L16.3583 11.4184C16.2768 11.4717 16.1816 11.5001 16.0842 11.5L16.0838 12ZM16.632 11.8369C16.7949 11.7303 16.9232 11.5785 17.0011 11.4L16.5429 11.2C16.5039 11.2892 16.4398 11.3652 16.3583 11.4184L16.632 11.8369ZM17.0012 11.3997L19.6682 5.26974L19.2098 5.07026L16.5428 11.2003L17.0012 11.3997ZM19.6684 5.26933C19.7342 5.11732 19.7613 4.95133 19.7471 4.78628L19.2489 4.82914C19.256 4.91166 19.2425 4.99466 19.2096 5.07067L19.6684 5.26933ZM19.7471 4.78628C19.7329 4.62124 19.6779 4.4623 19.5871 4.32376L19.1689 4.59788C19.2143 4.66715 19.2418 4.74662 19.2489 4.82914L19.7471 4.78628ZM19.5871 4.32376C19.4962 4.18522 19.3724 4.07141 19.2267 3.99256L18.9887 4.43228C19.0616 4.4717 19.1235 4.52861 19.1689 4.59788L19.5871 4.32376ZM19.2267 3.99256C19.0811 3.9137 18.9181 3.87228 18.7524 3.872L18.7516 4.372C18.8344 4.37214 18.9159 4.39285 18.9887 4.43228L19.2267 3.99256ZM18.752 3.872H4.99799V4.372H18.752V3.872Z" fill="#44524B" mask="url(#path-1-outside-1_6_19)"/>
<path d="M5.034 16.5C5.034 16.0359 5.21837 15.5908 5.54656 15.2626C5.87475 14.9344 6.31987 14.75 6.784 14.75C7.24813 14.75 7.69324 14.9344 8.02143 15.2626C8.34962 15.5908 8.534 16.0359 8.534 16.5C8.534 16.9641 8.34962 17.4092 8.02143 17.7374C7.69324 18.0656 7.24813 18.25 6.784 18.25C6.31987 18.25 5.87475 18.0656 5.54656 17.7374C5.21837 17.4092 5.034 16.9641 5.034 16.5ZM15.32 14.75C14.8559 14.75 14.4107 14.9344 14.0826 15.2626C13.7544 15.5908 13.57 16.0359 13.57 16.5C13.57 16.9641 13.7544 17.4092 14.0826 17.7374C14.4107 18.0656 14.8559 18.25 15.32 18.25C15.7841 18.25 16.2292 18.0656 16.5574 17.7374C16.8856 17.4092 17.07 16.9641 17.07 16.5C17.07 16.0359 16.8856 15.5908 16.5574 15.2626C16.2292 14.9344 15.7841 14.75 15.32 14.75Z" fill="#44524B"/>
</svg>
