<svg width="22" height="22" viewBox="0 0 22 22" fill="none" xmlns="http://www.w3.org/2000/svg">
<path d="M20 20L15.657 15.657M15.657 15.657C16.3999 14.9141 16.9892 14.0321 17.3912 13.0615C17.7933 12.0909 18.0002 11.0506 18.0002 9.99996C18.0002 8.94936 17.7933 7.90905 17.3912 6.93842C16.9892 5.96779 16.3999 5.08585 15.657 4.34296C14.9141 3.60007 14.0322 3.01078 13.0615 2.60874C12.0909 2.20669 11.0506 1.99976 10 1.99976C8.9494 1.99976 7.90908 2.20669 6.93845 2.60874C5.96782 3.01078 5.08589 3.60007 4.343 4.34296C2.84267 5.84329 1.99979 7.87818 1.99979 9.99996C1.99979 12.1217 2.84267 14.1566 4.343 15.657C5.84333 17.1573 7.87821 18.0002 10 18.0002C12.1218 18.0002 14.1567 17.1573 15.657 15.657Z" stroke="#44524B" stroke-width="2.25" stroke-linecap="round" stroke-linejoin="round"/>
</svg>
